<svg xmlns="http://www.w3.org/2000/svg" viewBox="0 0 1100 620" width="1100" height="620">
  <rect width="1100" height="620" fill="#ffffff"/>
  <text x="550" y="28" text-anchor="middle" font-family="Times New Roman, serif" font-size="16" font-weight="bold" fill="#111">Gambar 3.1a  Alur proses bisnis SITABA-BB</text>
  <style>
    .box { fill:#f7f7f7; stroke:#111; stroke-width:1.4; }
    .start { fill:#111; }
    .lbl { font-family:Times New Roman, serif; font-size:12px; fill:#111; text-anchor:middle; }
    .sm { font-family:Times New Roman, serif; font-size:11px; fill:#111; text-anchor:middle; }
    .arrow { stroke:#111; stroke-width:1.4; fill:none; marker-end:url(#ah); }
  </style>
  <defs>
    <marker id="ah" markerWidth="8" markerHeight="8" refX="7" refY="4" orient="auto">
      <path d="M0,0 L8,4 L0,8 z" fill="#111"/>
    </marker>
  </defs>

  <ellipse cx="90" cy="90" rx="48" ry="22" class="box"/>
  <text class="lbl" x="90" y="94">Mulai</text>

  <rect x="180" y="68" width="150" height="44" rx="4" class="box"/>
  <text class="lbl" x="255" y="86">Terima berkas</text>
  <text class="sm" x="255" y="102">Tahap II / BA</text>

  <rect x="370" y="68" width="160" height="44" rx="4" class="box"/>
  <text class="lbl" x="450" y="86">Catat perkara</text>
  <text class="sm" x="450" y="102">Web atau /tambah</text>

  <rect x="570" y="56" width="130" height="68" rx="4" class="box"/>
  <text class="lbl" x="635" y="82">Jenis unit?</text>
  <text class="sm" x="635" y="98">SINGLE / PACK</text>
  <polygon points="635,56 700,90 635,124 570,90" fill="none"/>

  <path class="arrow" d="M138,90 H180"/>
  <path class="arrow" d="M330,90 H370"/>
  <path class="arrow" d="M530,90 H570"/>

  <rect x="760" y="30" width="150" height="44" rx="4" class="box"/>
  <text class="lbl" x="835" y="48">BB mandiri</text>
  <text class="sm" x="835" y="64">Kode BB-YYYY-XXX</text>

  <rect x="760" y="106" width="150" height="44" rx="4" class="box"/>
  <text class="lbl" x="835" y="124">Paket/wadah</text>
  <text class="sm" x="835" y="140">Kode PKT + isi</text>

  <path class="arrow" d="M700,78 H760"/>
  <path class="arrow" d="M700,102 H760"/>
  <text class="sm" x="730" y="72">Satuan</text>
  <text class="sm" x="728" y="122">Paket</text>

  <rect x="950" y="68" width="130" height="44" rx="4" class="box"/>
  <text class="lbl" x="1015" y="86">Simpan gudang</text>
  <text class="sm" x="1015" y="102">+ mutasi CHECK_IN</text>
  <path class="arrow" d="M910,52 H980 V68"/>
  <path class="arrow" d="M910,128 H980 V112"/>

  <rect x="40" y="210" width="160" height="44" rx="4" class="box"/>
  <text class="lbl" x="120" y="228">Cetak label QR</text>
  <text class="sm" x="120" y="244">70 × 50 mm</text>

  <rect x="240" y="210" width="170" height="44" rx="4" class="box"/>
  <text class="lbl" x="325" y="228">Tempel stiker</text>
  <text class="sm" x="325" y="244">pada unit / wadah</text>

  <rect x="450" y="198" width="140" height="68" rx="4" class="box"/>
  <text class="lbl" x="520" y="226">Perlu sidang?</text>
  <text class="sm" x="520" y="242">Ya / Tidak</text>

  <path class="arrow" d="M1015,112 V190 H200 V210"/>
  <path class="arrow" d="M200,232 H240"/>
  <path class="arrow" d="M410,232 H450"/>

  <rect x="640" y="210" width="170" height="44" rx="4" class="box"/>
  <text class="lbl" x="725" y="228">Pinjam sidang</text>
  <text class="sm" x="725" y="244">JPU + tanggal sidang</text>

  <rect x="850" y="210" width="170" height="44" rx="4" class="box"/>
  <text class="lbl" x="935" y="228">Kembali gudang</text>
  <text class="sm" x="935" y="244">lokasi + kondisi</text>

  <path class="arrow" d="M590,232 H640"/>
  <text class="sm" x="615" y="204">Ya</text>
  <path class="arrow" d="M810,232 H850"/>

  <rect x="40" y="360" width="180" height="44" rx="4" class="box"/>
  <text class="lbl" x="130" y="378">Putusan inkracht</text>
  <text class="sm" x="130" y="394">per item BB</text>

  <rect x="260" y="348" width="150" height="68" rx="4" class="box"/>
  <text class="lbl" x="335" y="376">Jenis putusan</text>
  <text class="sm" x="335" y="392">4 opsi eksekusi</text>

  <rect x="450" y="320" width="130" height="36" rx="4" class="box"/>
  <text class="sm" x="515" y="342">Dimusnahkan</text>
  <rect x="600" y="320" width="130" height="36" rx="4" class="box"/>
  <text class="sm" x="665" y="342">Dikembalikan</text>
  <rect x="450" y="372" width="130" height="36" rx="4" class="box"/>
  <text class="sm" x="515" y="394">Dirampas / lelang</text>
  <rect x="600" y="372" width="130" height="36" rx="4" class="box"/>
  <text class="sm" x="665" y="394">PSP</text>

  <rect x="770" y="360" width="150" height="44" rx="4" class="box"/>
  <text class="lbl" x="845" y="378">Catat eksekusi</text>
  <text class="sm" x="845" y="394">BA + foto bukti</text>

  <ellipse cx="1000" cy="382" rx="52" ry="22" class="box"/>
  <text class="lbl" x="1000" y="386">Selesai</text>

  <path class="arrow" d="M520,266 V300 H130 V360"/>
  <text class="sm" x="500" y="292">Tidak / setelah kembali</text>
  <path class="arrow" d="M935,254 V300 H130"/>
  <path class="arrow" d="M220,382 H260"/>
  <path class="arrow" d="M410,382 H450"/>
  <path class="arrow" d="M730,338 H800 V360"/>
  <path class="arrow" d="M730,390 H770"/>
  <path class="arrow" d="M920,382 H948"/>

  <text x="550" y="470" text-anchor="middle" font-family="Times New Roman, serif" font-size="12" fill="#333">Keterangan: satu stiker QR menempel pada unit fisik (BB mandiri atau wadah paket). Putusan dicatat per rincian isi.</text>
  <text x="550" y="494" text-anchor="middle" font-family="Times New Roman, serif" font-size="11" fill="#555">Sumber: spesifikasi SITABA-BB Kejaksaan Negeri Wajo · Seksi PB3R</text>

  <rect x="40" y="520" width="1020" height="78" fill="#fff" stroke="#111" stroke-width="1"/>
  <text x="56" y="544" font-family="Times New Roman, serif" font-size="12" font-weight="bold">Jalur pencatatan</text>
  <text x="56" y="564" font-family="Times New Roman, serif" font-size="12">Portal web: administrasi, cetak label, ekspor register.</text>
  <text x="56" y="582" font-family="Times New Roman, serif" font-size="12">Bot Telegram: /tambah, /pinjam, /kembali, /eksekusi, /cari, /rekap  setelah Chat ID masuk daftar putih.</text>
</svg>
